# xmcd
#
# Track frame offsets:
#	150
#	22244
#	38194
#	54228
#	72315
#	88973
#	109103
#	126520
#	143927
#	158670
#	179313
#	195566
#	208595
#	226211
#	245565
#	260183
#	278625
#	292590
#	307627
#	333917
#
# Disc length: 4764 seconds
#
# Revision: 0
# Processed by: cddbd v1.5.2PL0 Copyright (c) Steve Scherf et al.
# Submitted via: audiograbber 1.83.01
#
DISCID=22129a14
DTITLE=Various Artist - History Of Dance - 8 - The Lounge Edition CD2
DYEAR=2009
DGENRE=Lovesongs
TTITLE0=Kinobe - Slip Into Something More Comfortable
TTITLE1=Faithless - Muhammed Ali
TTITLE2=Lemongrass - Journey To A Star
TTITLE3=Sweet Coffee - Don't Need You
TTITLE4=Shapeshifters - Lola's Theme (Lola's Loungin' Mix)
TTITLE5=Angie Stone -	Wish I Didn't Miss You
TTITLE6=Water - Hold Me
TTITLE7=Dusted - Always Remember And Respect
TTITLE8=Ror-Shak - Lisa's Song
TTITLE9=Ottmar Liebert and Luna Negra - Slip
TTITLE10=Jimmy Jazz - Babylon
TTITLE11=Da Vince - Nothing Is
TTITLE12=Bonicha - Dreams
TTITLE13=Nightmares On Wax - Rise
TTITLE14=Pep Llado - Vai Vedere
TTITLE15=Latin Vibe - Viver A Vida Com Voce
TTITLE16=Audio Lotion - Azul De Voce
TTITLE17=Geb.el - Love From The Sun
TTITLE18=N*E*R*D - Provider (Zero 7 Mix)
TTITLE19=Leftfield - Melt
EXTD=
EXTT0=
EXTT1=
EXTT2=
EXTT3=
EXTT4=
EXTT5=
EXTT6=
EXTT7=
EXTT8=
EXTT9=
EXTT10=
EXTT11=
EXTT12=
EXTT13=
EXTT14=
EXTT15=
EXTT16=
EXTT17=
EXTT18=
EXTT19=
PLAYORDER=
